<svg xmlns="http://www.w3.org/2000/svg" viewBox="0 0 144 144" width="144" height="144" focusable="false">
<g fill="#000">
    <path d="M0,89.68c.12-.68.27-1.36.37-2a7.82,7.82,0,0,1,5.37-6.41c1.65-.64,3.33-1.22,5-1.83.93-.34,1.89-.64,2.8-1a4.2,4.2,0,0,0,2.3-3c.54-2-.45-3.37-1.87-4.5a3.6,3.6,0,0,0-1.54-.44,5.57,5.57,0,0,0-1,0v-5H19a1.06,1.06,0,0,0,1.21-.76,5.17,5.17,0,0,1,1-1.32C23,61.2,24.86,59,26.65,56.76c2.34-2.92,4.64-5.86,7-8.8.11-.14.2-.3.4-.6l3.74,2.88L25.62,65.55H44v25H0Z"/>
    <path d="M21.36,142.59a2.69,2.69,0,0,1-1.74-1.94,2.42,2.42,0,0,1,4.76-.89l0,.24a2.44,2.44,0,0,1-1.58,2.45l-.24.14Z"/>
    <path d="M128.16,142.59a2.84,2.84,0,0,1-1.74-1.68,2.42,2.42,0,0,1,1-2.82,2.73,2.73,0,0,1,2.92.36,2.45,2.45,0,0,1,0,3.46,2.42,2.42,0,0,1-.84.54,1.12,1.12,0,0,0-.24.13Z"/>
    <path d="M44.83,63.48V1.59H71V3.9a15.61,15.61,0,0,0,3.25,9.16,23.73,23.73,0,0,0,7.11,6,43.22,43.22,0,0,0,4.09,2.3A35.28,35.28,0,0,0,90,23c1.41.41,2.85.73,4.29,1s3.17.62,4.77.85,3.26.29,4.88.52c1.78.26,3.55.61,5.33.93s3.54.63,5.29,1c1.18.28,2.31.73,3.46,1.1.72.23,1.45.44,2.17.7,1.08.39,2.16.8,3.22,1.24s1.87.79,2.77,1.25a27.22,27.22,0,0,1,6,4.39,34.92,34.92,0,0,1,5.91,7.09,33.22,33.22,0,0,1,4.34,10.24,23.85,23.85,0,0,1,.48,5.06v5.07Z"/>
    <path d="M58.49,82.39l5.24-16.25H70.3v.73a2.28,2.28,0,0,0-2,2.52.34.34,0,0,0,0,.1q-.08,8.3-.11,16.61a9.69,9.69,0,0,0,.25,2,2.18,2.18,0,0,0,1.92,1.54v.76h-8.5l-.06-.72c1.35-.31,2.14-.77,2.18-2.87.1-5.7,0-11.41-.09-17.15Q60.54,80,57.24,90.36l-.63.07q-3.2-10.46-6.4-20.9h-.13v16.8a5.35,5.35,0,0,0,.16,1.44,2.13,2.13,0,0,0,2,1.81v.76H47l-.09-.74a2.14,2.14,0,0,0,2-1.83,6.83,6.83,0,0,0,.16-1.69V70.25a8.9,8.9,0,0,0-.2-1.86c-.25-1.09-.7-1.42-1.81-1.46h-.37l-.07-.78H53.4l5,16.26Z"/>
    <path d="M131.06,136.92h-4.79c-.06-.58-.15-1.16-.18-1.73-.1-1.52-.17-3-.25-4.56-.12-2.06-.25-4.13-.37-6.19-.08-1.35-.18-2.71-.24-4.06-.14-2.58-.25-5.15-.38-7.73-.07-1.54-.13-3.08-.25-4.62-.13-1.71-.33-3.41-.46-5.12-.06-.65,0-1.31,0-2H133c0,.87-.11,1.73-.16,2.6q-.18,3.7-.37,7.41c-.07,1.34-.17,2.67-.24,4-.13,2.47-.24,4.94-.37,7.42-.07,1.31-.18,2.62-.24,3.94-.1,2-.16,3.94-.25,5.91C131.27,133.74,131.16,135.3,131.06,136.92Z"/>
    <path d="M26.3,101c-.13,1.83-.27,3.61-.39,5.38-.06.77-.1,1.54-.13,2.31-.05,1.16-.07,2.32-.13,3.47q-.18,3.47-.37,6.93c-.08,1.49-.17,3-.24,4.49-.09,1.72-.17,3.45-.25,5.17l-.24,5c-.06,1.07-.13,2.14-.19,3.26H19.61c-.07-.4-.17-.79-.2-1.18-.1-1.45-.17-2.91-.25-4.37-.12-2.06-.25-4.12-.37-6.19-.08-1.35-.18-2.7-.25-4.06-.13-2.53-.24-5.06-.37-7.6-.07-1.54-.13-3.08-.25-4.61-.13-1.83-.33-3.66-.47-5.49-.05-.81,0-1.63,0-2.49Z"/>
    <path d="M106.41,83h.72L106,90.37H90.78v-.69c1.86-.39,2.19-1.69,2.19-3V69.56a2.69,2.69,0,0,0-.9-2.15,6.78,6.78,0,0,0-1.27-.62v-.6h15.06v7.29h-.56a10.63,10.63,0,0,0-1.7-4.78,3.61,3.61,0,0,0-2.91-1.36h-3a2.66,2.66,0,0,0-.34.9v9.34A13.39,13.39,0,0,0,99.5,77c1-.45,1.24-1.52,1.53-2.47.22-.77.35-1.56.54-2.39l.54.09V84h-.56c-.21-.86-.42-1.75-.63-2.64a2.9,2.9,0,0,0-3-2.49,5.56,5.56,0,0,1-.74-.12v8.59c0,1.65.37,1.76,1.5,1.92A5.46,5.46,0,0,0,104,87.5a13.59,13.59,0,0,0,2.2-4C106.27,83.33,106.34,83.14,106.41,83Z"/>
    <path d="M142.5,66.16v7.27H142c-.07-.37-.12-.7-.18-1a8.24,8.24,0,0,0-1.16-3.25,4,4,0,0,0-3.29-1.83h-2.81c-.63.35-.58,1-.59,1.52V77.4a.35.35,0,0,0,.06.14,16,16,0,0,0,1.81-.34,2.77,2.77,0,0,0,1.81-2.1c.27-.92.47-1.86.73-2.88l.46-.1V84h-.51l-.18-.76c-.2-.79-.4-1.58-.61-2.37a2.69,2.69,0,0,0-2.5-2c-.33-.05-.67-.08-1.08-.12v7.62a7.32,7.32,0,0,0,.16,1.87,1.44,1.44,0,0,0,.83.91c3,.55,5.2-.17,6.87-3.18.53-1,1-2,1.46-3h.65c-.39,2.47-.78,4.91-1.18,7.4H127.59v-.69c1.54-.37,2.13-1.15,2.15-3.13.07-5.51,0-11,0-16.51a6.25,6.25,0,0,0-.35-1.76,1.65,1.65,0,0,0-1.8-1.28v-.79Z"/>
    <path d="M113.9,89.63v.74h-5.22v-.73a2.52,2.52,0,0,0,2.06-2.7V70.31a2.38,2.38,0,0,0-.31-1,13.06,13.06,0,0,0-1-1.64,6.59,6.59,0,0,0-.82-.85l-.15.11v-.76H114l9,15.08h.11V69.39a2.21,2.21,0,0,0-1.25-2.29,6.69,6.69,0,0,0-.77-.2l-.07-.72h5.25v.75a2.08,2.08,0,0,0-1.91,1.8,7.82,7.82,0,0,0-.13,1.45V90.64h-.83q-5.73-9.45-11.47-18.9h-.1V87a2.45,2.45,0,0,0,1.34,2.39A3.76,3.76,0,0,0,113.9,89.63Z"/>
    <path d="M33.93,96.64c-2.37.08-4.84,0-5.89,2.94H15.53a4.35,4.35,0,0,0-2.32-2.46,19.09,19.09,0,0,0-3.45-.47V92.82H33.93Z"/>
    <path d="M140.66,92.8v3.87h-1.45a5.53,5.53,0,0,0-3.22,1,2.53,2.53,0,0,0-1.11,1.9H122.24c-1-2.57-3.16-3.08-5.71-2.82v-4Z"/>
    <path d="M89.56,89.61v.75H81.09v-.59a9.39,9.39,0,0,0,1.85-.7A1.32,1.32,0,0,0,83.45,88c-.37-1.55-.86-3.07-1.31-4.58H76c-.32,1.4-.72,2.82-.94,4.26s.66,1.67,1.64,1.87h.36l.06.74H71.73v-.73a2.08,2.08,0,0,0,1.76-1.73c1.22-4,2.43-8,3.66-12,.71-2.29,1.44-4.58,2.15-6.87.29-1,.58-1.91.87-2.89H81c.31,1,.64,2,1,3Q83,72.6,84.07,76l3.69,12A1.88,1.88,0,0,0,89.56,89.61Zm-13.08-7.7h5.17L79,73.28Z"/>
</g>
</svg>
