<svg xmlns="http://www.w3.org/2000/svg" width="86.11" height="36" viewBox="0 0 86.11 36">
  <g id="Group_311" data-name="Group 311" transform="translate(-53.479 -475.607)">
    <rect id="Rectangle_192" data-name="Rectangle 192" width="36" height="36" transform="translate(53.479 475.607)" fill="#008cff"/>
    <path id="Path_70" data-name="Path 70" d="M85.379,494.89c-3.832-6.638-8.265-8.9-8.265-8.9l-.135-.059-.134.059s-4.433,2.266-8.265,8.9-4.1,11.81-4.1,11.81a28.538,28.538,0,0,0,12.365,2.484h.269a28.872,28.872,0,0,0,12.41-2.484A29.717,29.717,0,0,0,85.379,494.89Zm-8.4,9.954a22.6,22.6,0,0,1-7.152-1.072,22.64,22.64,0,0,1,2.646-6.712,23.405,23.405,0,0,1,4.506-5.745,23.356,23.356,0,0,1,4.507,5.745,22.658,22.658,0,0,1,2.646,6.712A22.6,22.6,0,0,1,76.979,504.844Z" transform="translate(-5.409 -4.918)" fill="#fff"/>
    <path id="Path_67" data-name="Path 67" d="M187.521,491.4a7.064,7.064,0,0,0-2.126-.3c-1.476.024-2.279.631-2.189,1.563.174,1.826,4.8,3.323,4.819,7.389.012,3.191-2.028,6.756-7.934,6.861a50.691,50.691,0,0,1-8.386-.959L174,501c2.674.738,4.53,1.328,6.528,1.3,1.415-.018,2.146-.656,2.142-1.643-.007-2.2-4.174-3.02-4.588-7.344-.338-3.54,1.906-6.3,7.089-6.386a17.584,17.584,0,0,1,2.906.177Z" transform="translate(-48.483 -3.407)" fill="#fff"/>
    <path id="Path_68" data-name="Path 68" d="M127.363,492.172c.146.214.03,1.044.03,1.044-.258,3.675-2.74,8.943-4.838,8.788-.749-.056-1.16-.748-1.326-2.238-.4-3.609,2.484-7.455,4.309-7.911C126.527,491.607,127.084,491.762,127.363,492.172Zm4.381-4.409a14.553,14.553,0,0,0-5.845-.3c-4.719.63-10.685,6.814-9.511,13.7.709,4.164,2.735,6.125,5.7,6.121,3.191,0,5.473-2.683,6.559-5.478h.044a36.62,36.62,0,0,0,.045,5.107h5.676C133.319,498.157,132.594,494.908,131.743,487.763Z" transform="translate(-21.206 -3.601)" fill="#fff"/>
    <path id="Path_69" data-name="Path 69" d="M161.722,487.462l-4.545,12.283-.072,0a1.3,1.3,0,0,0-.073-.351c-.383-2.168-1.185-10.792-1.243-11.41l0-.009h0l0-.027h-5.5l.01.027h-.1l2.978,18.823h5.564l8.614-18.235Z" transform="translate(-37.904 -3.672)" fill="#fff"/>
  </g>
</svg>
