<?xml version="1.0" standalone="no"?>
<!DOCTYPE svg PUBLIC "-//W3C//DTD SVG 20010904//EN"
 "http://www.w3.org/TR/2001/REC-SVG-20010904/DTD/svg10.dtd">
<svg version="1.0" xmlns="http://www.w3.org/2000/svg"
 width="398.000000pt" height="398.000000pt" viewBox="0 0 398.000000 398.000000"
 preserveAspectRatio="xMidYMid meet">

<g transform="translate(0.000000,398.000000) scale(0.100000,-0.100000)"
fill="#000000" stroke="none">
<path d="M2380 3431 c0 -5 -21 -6 -46 -3 -36 4 -51 0 -74 -17 -16 -11 -41 -21
-55 -21 -42 0 -81 -26 -100 -67 -23 -50 -44 -73 -67 -73 -21 0 -23 -11 -6 -28
9 -9 8 -12 -5 -12 -31 0 -67 -46 -67 -85 0 -20 -6 -46 -12 -58 -7 -12 -13 -42
-14 -67 -1 -25 -9 -63 -17 -85 -22 -54 -21 -121 3 -173 17 -38 18 -50 9 -89
-7 -25 -9 -78 -6 -123 4 -68 3 -81 -13 -95 -18 -16 -20 -14 -49 42 -16 33 -52
98 -79 146 -27 47 -55 110 -62 139 -7 29 -24 80 -38 113 -14 33 -28 76 -31 95
-5 25 -14 39 -33 48 -41 19 -56 78 -34 131 9 23 16 50 16 60 0 10 9 26 20 36
21 19 26 50 10 60 -14 8 -51 -12 -77 -43 l-22 -26 -10 25 c-6 13 -15 56 -19
94 -7 66 -8 70 -32 70 -24 0 -25 -3 -30 -69 l-5 -68 -27 56 c-20 41 -33 56
-48 56 -33 0 -35 -28 -6 -87 l27 -55 -39 31 c-44 34 -69 39 -79 15 -3 -10 8
-29 32 -54 l37 -38 -41 11 c-30 8 -44 8 -52 0 -16 -16 -4 -30 41 -53 22 -11
48 -30 59 -42 31 -33 54 -123 46 -183 -5 -40 -3 -55 9 -65 10 -8 16 -29 16
-59 0 -95 172 -441 280 -563 l41 -48 -35 -137 c-50 -195 -76 -334 -83 -439 -5
-81 -3 -97 16 -136 11 -24 21 -59 21 -76 0 -17 8 -46 18 -64 16 -29 17 -47 10
-148 -18 -275 -10 -504 22 -615 30 -106 30 -111 -9 -148 -20 -19 -56 -45 -81
-57 -63 -31 -80 -49 -80 -82 0 -15 -4 -28 -10 -28 -14 0 -12 -36 3 -48 22 -18
128 -34 206 -31 44 1 88 -3 106 -10 17 -7 67 -17 111 -23 70 -10 92 -9 155 7
41 9 87 24 102 32 27 13 28 17 21 61 -4 26 -15 71 -25 101 -23 65 -24 121 -5
221 12 60 14 133 9 355 -6 254 -4 286 12 335 17 51 46 90 67 90 4 0 8 20 8 44
0 26 6 48 14 56 17 13 66 136 66 164 0 10 8 29 19 42 l19 24 30 -83 c30 -80
31 -84 20 -160 -9 -60 -8 -87 1 -112 9 -25 9 -39 0 -59 -11 -22 -9 -33 10 -72
14 -26 21 -54 17 -67 -3 -12 -34 -53 -70 -89 -59 -61 -64 -69 -50 -83 21 -20
36 -19 67 5 45 36 51 28 43 -58 -13 -144 -14 -134 17 -145 37 -12 76 4 126 53
50 48 65 105 65 246 1 103 3 113 24 130 21 18 23 28 29 199 l6 180 -41 122
c-70 209 -123 335 -153 362 -25 24 -26 29 -19 76 9 56 -2 83 -45 111 l-25 16
62 68 c50 55 69 69 100 74 26 4 53 20 82 46 38 35 54 63 87 147 4 12 26 34 48
47 30 19 42 34 47 60 3 19 3 40 -1 46 -3 6 6 25 20 42 22 26 26 40 23 75 -2
30 1 43 9 43 18 0 16 17 -2 24 -11 4 -15 20 -13 68 1 62 -13 108 -33 108 -7 0
-8 12 -4 30 4 19 3 30 -4 30 -6 0 -17 15 -25 33 -24 59 -97 107 -183 122 -26
4 -51 17 -68 35 -37 39 -84 53 -145 45 -41 -6 -51 -4 -56 9 -6 17 -24 22 -24
7z m-900 -59 c0 -21 6 -62 14 -92 13 -50 13 -56 -5 -81 -10 -15 -19 -36 -19
-47 0 -13 -10 -24 -27 -30 -16 -5 -36 -13 -45 -17 -13 -5 -21 0 -30 20 -7 16
-32 37 -61 52 -61 31 -55 40 12 17 27 -10 53 -15 57 -11 4 4 -17 32 -46 62
-63 64 -56 72 14 15 76 -63 86 -49 35 51 -17 34 -27 64 -23 68 4 3 9 1 11 -5
10 -29 69 -118 81 -122 9 -3 12 17 12 77 0 47 4 81 10 81 6 0 10 -17 10 -38z
m126 -111 c-10 -11 -23 -41 -30 -68 -12 -46 -14 -48 -49 -51 -28 -2 -37 0 -37
13 0 18 118 140 127 131 3 -3 -2 -15 -11 -25z m-50 -193 c12 -35 27 -57 42
-63 13 -5 25 -21 28 -35 3 -14 18 -56 34 -95 15 -38 33 -97 40 -130 7 -33 20
-71 30 -85 27 -39 140 -249 140 -261 0 -6 -11 -34 -25 -63 -35 -74 -45 -140
-44 -280 1 -66 4 -111 6 -98 2 12 8 22 12 22 7 0 31 43 31 56 0 2 -10 9 -22
14 -21 8 -21 9 -3 9 17 1 20 9 22 51 1 45 -1 50 -20 51 -22 1 -22 1 -1 7 14 5
20 14 19 30 -1 12 2 22 7 22 4 0 9 -37 10 -82 1 -81 1 -80 8 32 4 63 5 122 2
130 -2 8 8 -2 23 -23 15 -21 29 -36 32 -33 3 3 -5 19 -18 37 -32 45 -30 92 4
126 l26 27 25 -55 c13 -30 26 -68 30 -86 4 -27 3 -31 -11 -26 -14 6 -14 2 3
-20 10 -14 26 -27 35 -27 9 0 28 -9 42 -20 14 -11 30 -20 36 -20 6 0 11 -5 11
-11 0 -6 -7 -9 -15 -5 -8 3 -15 2 -15 -3 0 -10 155 -57 235 -72 90 -16 88 -14
65 -51 -33 -55 -22 -66 19 -18 34 39 43 45 80 45 52 0 68 -17 102 -102 l26
-66 -34 -86 c-36 -87 -39 -140 -12 -165 9 -8 10 -7 4 3 -4 7 -3 16 2 20 5 3
22 39 38 79 l28 73 13 -31 c11 -26 11 -36 -6 -76 -25 -57 -25 -66 0 -95 14
-17 20 -20 20 -9 1 8 7 29 14 45 l13 30 13 -57 13 -56 -57 -68 c-43 -50 -56
-72 -52 -88 3 -12 6 -27 6 -34 0 -7 4 -11 8 -8 5 3 7 20 5 38 -3 27 -1 29 6
13 9 -18 10 -18 10 -2 1 11 6 15 12 11 12 -7 58 42 59 63 0 6 -6 13 -12 16 -8
2 -7 3 2 3 12 -1 15 -18 16 -81 1 -44 -1 -67 -3 -52 -4 23 -7 26 -19 16 -7 -6
-11 -15 -8 -20 3 -5 2 -19 -2 -32 -7 -21 -8 -21 -13 -2 -6 20 -8 19 -32 -10
-22 -26 -25 -35 -17 -64 12 -43 22 -32 21 22 0 25 1 31 4 15 5 -35 16 -35 40
-3 l18 25 0 -37 c0 -21 -5 -41 -12 -46 -16 -10 -33 -72 -33 -119 0 -32 -4 -39
-26 -44 -15 -4 -47 -3 -73 2 l-46 9 -5 56 c-3 31 -11 63 -19 73 -9 11 -12 29
-7 57 4 23 2 55 -5 73 -8 24 -7 52 4 121 8 53 11 92 5 96 -12 7 -73 192 -83
248 -6 36 -9 41 -17 27 -5 -9 -7 -34 -3 -55 6 -34 4 -38 -22 -50 -15 -7 -36
-17 -45 -22 -10 -5 -25 -9 -33 -9 -8 0 -15 -4 -15 -10 0 -5 -9 -1 -20 10 -11
11 -28 20 -37 20 -10 0 -74 7 -143 15 -98 11 -126 12 -132 2 -13 -20 -9 -24
22 -19 40 6 38 -8 -6 -37 -32 -22 -61 -58 -52 -66 2 -2 34 19 71 46 49 37 76
49 95 47 24 -3 13 -13 -88 -84 -100 -71 -115 -79 -118 -61 -2 11 0 22 5 26 14
9 24 41 13 41 -18 0 -11 37 10 51 10 8 22 26 25 41 6 24 4 27 -26 30 -31 3
-34 7 -40 43 -4 22 -3 45 1 50 4 6 10 45 12 89 3 69 2 75 -9 50 -7 -16 -13
-42 -13 -59 -1 -23 -3 -26 -9 -12 -6 17 -8 17 -18 -6 -8 -18 -9 -53 -2 -126 8
-91 8 -147 -2 -176 -2 -5 5 -32 16 -58 23 -60 32 -64 178 -77 61 -5 129 -13
149 -16 45 -7 59 0 92 49 18 26 26 51 26 80 0 51 5 58 50 86 45 27 70 29 47 3
-10 -10 -17 -25 -17 -34 0 -26 -40 -132 -60 -160 -11 -15 -20 -43 -20 -63 0
-44 -12 -49 -151 -66 -119 -14 -330 -7 -399 14 -43 12 -45 15 -48 52 -2 22
-11 56 -20 75 -35 73 -14 258 69 579 42 166 44 175 30 167 -5 -4 -28 15 -51
41 -99 112 -261 436 -266 530 -2 29 -10 63 -18 76 -13 19 -14 29 -4 54 9 24 8
40 -4 77 -17 53 -14 59 49 82 68 24 78 20 99 -38z m775 -64 c22 4 31 0 44 -20
24 -36 53 -64 68 -64 6 1 1 7 -13 15 l-25 14 27 1 c15 0 30 5 33 10 3 6 -1 10
-9 10 -8 0 -18 5 -22 11 -13 22 14 31 70 24 l56 -7 0 -38 c0 -39 31 -90 55
-90 22 0 45 -29 45 -58 l0 -26 -32 31 c-18 18 -46 37 -61 42 -37 14 -94 14
-103 0 -8 -14 14 -29 43 -29 59 0 150 -66 157 -113 1 -7 5 -18 10 -25 13 -21
25 -72 17 -72 -4 0 -44 -56 -89 -125 -95 -145 -137 -189 -206 -221 -58 -26
-156 -46 -156 -32 0 5 -4 6 -10 3 -5 -3 -10 1 -10 10 0 9 -4 14 -9 11 -11 -7
-22 19 -16 37 3 7 -12 19 -37 29 -36 16 -45 16 -70 4 -21 -11 -28 -12 -28 -2
0 7 -10 12 -22 12 -28 -1 -74 87 -89 171 -9 51 -7 71 20 176 16 64 41 142 55
172 14 30 22 55 18 55 -4 0 8 10 26 22 19 11 38 32 43 44 7 19 16 24 41 23
l33 -1 -27 -10 c-39 -14 -35 -25 6 -20 48 6 96 -12 145 -54 32 -28 42 -32 47
-21 12 33 -44 86 -109 103 -20 4 -25 9 -16 15 7 4 26 1 42 -8 17 -8 42 -13 58
-9z m-336 -42 c-29 -21 -49 -79 -49 -143 -1 -48 -4 -62 -10 -51 -28 49 11 202
51 202 10 0 14 -4 8 -8z m751 -396 c-27 -66 -88 -126 -126 -126 -10 1 -9 4 5
12 39 21 77 64 100 111 19 37 20 47 9 47 -9 0 -12 5 -8 11 4 8 11 6 21 -4 13
-12 13 -19 -1 -51z m-622 -235 c3 -5 -1 -11 -9 -14 -9 -4 -12 -1 -8 9 6 16 10
17 17 5z m-269 -21 c3 -5 1 -10 -4 -10 -6 0 -11 5 -11 10 0 6 2 10 4 10 3 0 8
-4 11 -10z m319 -15 c-4 -8 -8 -15 -10 -15 -2 0 -4 7 -4 15 0 8 4 15 10 15 5
0 7 -7 4 -15z m-308 -50 c-3 -8 -13 -15 -23 -15 -17 1 -16 2 1 15 11 8 16 15
12 15 -4 0 -4 5 0 12 10 16 18 -6 10 -27z m611 -11 c33 -25 33 -27 27 -77 -4
-29 -12 -55 -18 -59 -31 -21 -247 11 -346 51 -27 10 -24 12 29 17 19 1 46 11
61 22 24 18 34 19 96 12 112 -15 164 -13 164 6 0 12 -3 14 -12 6 -15 -12 -89
-8 -114 6 -15 8 -13 11 14 17 18 3 34 11 37 16 10 15 26 10 62 -17z m-652 -44
c3 -5 1 -10 -4 -10 -6 0 -11 5 -11 10 0 6 2 10 4 10 3 0 8 -4 11 -10z m5 -90
c0 -5 -4 -10 -10 -10 -5 0 -10 5 -10 10 0 6 5 10 10 10 6 0 10 -4 10 -10z m65
-370 c-3 -5 -11 -10 -16 -10 -6 0 -7 5 -4 10 3 6 11 10 16 10 6 0 7 -4 4 -10z
m280 -30 c-11 -17 -123 -90 -139 -90 -9 0 -16 -6 -16 -12 0 -17 -64 -58 -90
-58 -11 0 -20 3 -20 8 2 15 225 162 248 162 13 0 20 -4 17 -10z m46 -43 c-16
-20 -147 -107 -160 -107 -30 0 0 34 79 89 61 43 86 55 88 45 2 -8 -1 -21 -7
-27z m-1 -64 c-1 -26 -76 -75 -108 -71 -25 3 -23 6 33 45 68 48 75 50 75 26z
m-10 -73 c0 -5 -4 -10 -10 -10 -5 0 -10 5 -10 10 0 6 5 10 10 10 6 0 10 -4 10
-10z m-372 -180 c105 -10 168 -9 312 5 l45 4 -50 -14 c-27 -8 -95 -19 -150
-25 -118 -13 -213 -2 -271 30 -22 11 -31 19 -21 16 11 -4 71 -11 135 -16z m70
-50 c51 0 136 7 189 15 53 9 98 13 101 11 2 -3 -1 -19 -7 -37 -7 -21 -11 -139
-11 -338 0 -313 -7 -380 -41 -402 -10 -6 -10 -9 -1 -9 7 0 12 -13 12 -30 0
-25 -4 -30 -35 -36 -51 -9 -65 0 -65 41 0 19 -4 35 -9 35 -13 0 -21 56 -30
210 -4 74 -18 216 -31 315 l-24 180 -40 1 c-39 2 -39 1 -17 -15 l22 -17 -29
-155 c-27 -135 -30 -168 -25 -266 6 -113 -7 -199 -31 -215 -7 -5 -7 -8 2 -8
18 0 15 -57 -4 -64 -9 -3 -31 -6 -50 -6 -29 0 -35 4 -40 28 -3 15 -15 59 -27
97 -20 64 -22 92 -21 335 0 146 3 286 7 311 l8 47 52 -14 c29 -8 94 -14 145
-14z m56 -295 c9 -82 20 -206 25 -275 6 -69 16 -159 25 -200 14 -73 14 -76 -6
-97 -12 -13 -38 -31 -59 -42 l-37 -20 -21 51 c-25 60 -26 104 -6 218 11 61 14
114 9 188 -5 84 -2 125 17 228 12 69 26 119 30 112 4 -7 14 -80 23 -163z m556
79 c27 -9 70 -14 95 -12 41 3 46 1 52 -20 6 -25 -13 -126 -28 -152 -6 -10 -7
2 -3 33 4 29 2 47 -4 47 -6 0 -13 -22 -17 -49 -4 -27 -12 -57 -19 -67 -11 -14
-12 -8 -8 40 3 37 1 56 -7 56 -6 0 -11 -17 -11 -39 0 -41 -22 -105 -41 -117
-7 -4 -9 0 -5 12 6 21 26 122 26 135 0 5 -4 9 -9 9 -4 0 -13 -30 -19 -67 -10
-61 -25 -94 -36 -82 -3 2 -1 22 4 44 15 65 12 151 -6 169 -16 17 -21 16 -66
-18 -44 -32 -44 -11 1 35 23 24 41 47 41 51 0 11 4 10 60 -8z m-647 -672 c17
-44 19 -55 7 -62 -9 -5 -22 1 -42 20 -18 19 -47 33 -83 41 -30 7 -55 15 -55
19 0 3 12 18 28 32 32 32 115 44 120 18 2 -8 13 -39 25 -68z m303 -37 c21 -62
25 -88 17 -96 -8 -8 -13 -3 -18 20 -8 37 -44 67 -99 82 -22 6 -47 13 -55 15
-28 9 28 53 73 57 22 2 44 4 48 5 4 1 19 -36 34 -83z m-394 14 c51 -13 69 -41
55 -82 -7 -18 -12 -33 -12 -34 0 0 -17 -4 -37 -8 -34 -7 -39 -5 -47 18 -15 39
-49 56 -119 58 -34 1 -62 3 -62 5 0 2 26 17 58 33 59 31 76 32 164 10z m325
-34 c34 -15 70 -74 59 -100 -5 -15 -90 -38 -94 -25 -12 33 -49 62 -100 76 -78
23 -79 23 -35 50 32 20 46 23 87 19 27 -4 65 -12 83 -20z m-428 -35 c31 -9 50
-24 51 -41 0 -16 -37 -19 -94 -8 -64 12 -93 29 -82 48 9 14 80 14 125 1z m354
-57 c9 -9 17 -20 17 -25 0 -11 -85 -8 -145 6 -39 9 -50 15 -50 31 0 12 9 21
25 25 31 8 129 -16 153 -37z"/>
<path d="M1940 2230 c0 -5 5 -10 11 -10 5 0 7 5 4 10 -3 6 -8 10 -11 10 -2 0
-4 -4 -4 -10z"/>
<path d="M1991 2196 c14 -13 69 -35 69 -28 0 9 -44 32 -62 32 -6 0 -9 -2 -7
-4z"/>
<path d="M2129 1997 c-23 -17 -32 -52 -17 -64 9 -8 20 -3 38 15 14 13 19 21
11 17 -11 -6 -13 -2 -7 19 7 28 0 32 -25 13z"/>
<path d="M2512 1873 c-18 -4 -21 -9 -16 -31 13 -54 21 -55 36 -8 8 25 13 45 9
45 -3 -1 -16 -4 -29 -6z"/>
<path d="M2605 1629 c-5 -7 -4 -14 3 -17 7 -2 12 -8 12 -14 0 -6 -6 -8 -14 -5
-8 3 -17 -1 -20 -9 -10 -25 -7 -36 7 -24 6 6 20 16 29 23 15 10 15 15 4 36
-10 18 -15 20 -21 10z"/>
<path d="M2608 1537 c-11 -9 -14 -18 -8 -27 10 -17 15 -13 24 18 8 25 7 26
-16 9z"/>
<path d="M2583 1269 c-17 -17 -16 -48 2 -55 20 -8 38 5 27 19 -6 7 -11 20 -13
30 -3 15 -6 16 -16 6z"/>
<path d="M2098 2890 c-25 -15 -22 -47 5 -56 17 -5 134 -59 180 -82 4 -2 7 15
7 38 0 33 -6 47 -32 73 -28 27 -41 32 -88 35 -30 1 -63 -3 -72 -8z m65 -33
c-11 -15 -24 -22 -35 -19 -45 11 -27 42 25 42 28 0 28 0 10 -23z m52 4 c7 -12
-12 -24 -25 -16 -11 7 -4 25 10 25 5 0 11 -4 15 -9z m55 -63 c0 -19 -8 -22
-26 -10 -8 5 -8 15 -2 32 7 20 11 22 18 10 5 -8 10 -23 10 -32z"/>
<path d="M2160 2785 c14 -8 30 -14 35 -14 6 0 -1 6 -15 14 -14 8 -29 14 -35
14 -5 0 1 -6 15 -14z"/>
<path d="M2330 2776 c0 -3 14 -11 30 -20 32 -16 42 -3 11 14 -20 10 -41 13
-41 6z"/>
<path d="M2314 2749 c-3 -5 4 -9 14 -9 32 0 44 -22 31 -58 -6 -17 -9 -39 -7
-49 2 -10 10 6 17 35 10 39 10 56 2 66 -15 18 -49 27 -57 15z"/>
<path d="M2477 2750 c-30 -4 -56 -14 -69 -28 -21 -21 -21 -21 -2 -28 10 -3 56
-24 102 -46 103 -49 135 -41 101 25 -12 24 -69 80 -69 69 0 -4 -4 -2 -8 3 -4
6 -27 8 -55 5z m-7 -40 c-12 -22 -12 -22 -34 -14 -22 8 -2 34 26 34 16 0 17
-3 8 -20z m54 -1 c-8 -14 -24 -10 -24 6 0 9 6 12 15 9 8 -4 12 -10 9 -15z m61
-39 c19 -37 19 -40 -3 -40 -30 0 -41 18 -28 46 6 13 12 24 13 24 1 0 9 -13 18
-30z"/>
<path d="M2662 2655 c0 -16 2 -22 5 -12 2 9 2 23 0 30 -3 6 -5 -1 -5 -18z"/>
<path d="M2450 2655 c0 -7 61 -37 66 -33 2 3 -12 12 -31 21 -19 9 -35 15 -35
12z"/>
<path d="M2185 2610 c-5 -16 2 -29 29 -54 31 -28 43 -33 84 -32 43 1 47 3 49
26 l3 25 -10 -24 c-8 -19 -13 -22 -22 -13 -7 7 -23 12 -37 12 -32 1 -85 45
-77 65 3 8 1 15 -4 15 -5 0 -12 -9 -15 -20z"/>
<path d="M2011 2604 c0 -11 3 -14 6 -6 3 7 2 16 -1 19 -3 4 -6 -2 -5 -13z"/>
<path d="M2081 2607 c-14 -18 4 -184 25 -215 22 -34 74 -62 115 -62 26 0 51
10 85 35 27 20 61 41 77 48 36 15 36 51 0 74 -31 21 -129 25 -125 6 3 -16 1
-16 -34 -3 -25 10 -26 11 -9 24 18 13 17 15 -11 41 -34 33 -84 65 -100 65 -6
0 -16 -6 -23 -13z m83 -102 c30 -19 88 -46 128 -59 57 -18 68 -25 51 -30 -45
-14 -243 75 -243 110 0 19 3 19 64 -21z m57 -153 c-35 -4 -86 20 -101 47 -8
17 0 15 60 -12 63 -29 67 -32 41 -35z"/>
</g>
</svg>
